<?xml version="1.0" encoding="UTF-8" standalone="no"?>
<!-- Uploaded to: SVG Repo, www.svgrepo.com, Transformed by: SVG Repo Mixer Tools -->

<svg
   height="500"
   width="500.00049"
   version="1.1"
   id="Capa_1"
   viewBox="0 0 111.8826 111.88251"
   xml:space="preserve"
   fill="#b60202"
   stroke="#b60202"
   xmlns="http://www.w3.org/2000/svg"
   xmlns:svg="http://www.w3.org/2000/svg"><defs
   id="defs12">  </defs>

<g
   id="SVGRepo_bgCarrier"
   stroke-width="0"
   transform="translate(130.65874,-20.722588)" />

<g
   id="SVGRepo_tracerCarrier"
   stroke-linecap="round"
   stroke-linejoin="round"
   transform="translate(130.65874,-20.722588)" />

<g
   id="g6"
   transform="matrix(0.43851046,0,0,0.53952495,16.343665,7.6580289)"
   style="fill:#e30202;fill-opacity:1"> <path
   style="fill:#e30202;fill-opacity:1;stroke-width:0.868724"
   d="M 147.87412,72.720958 C 145.24102,53.220718 134.49057,39.006662 121.24601,39.006662 H 59.35987 c -13.254117,0 -24.000228,14.207975 -26.638542,33.709084 -9.558566,4.836184 -14.513767,14.861255 -14.513767,26.477827 0,8.941777 2.928468,16.929687 8.620346,22.351397 v 18.43257 h 22.93691 v -11.20653 h 81.071033 v 11.20653 h 22.93691 v -18.43257 c 5.68666,-5.42171 8.62034,-13.40962 8.62034,-22.351397 -0.005,-11.611359 -4.96041,-21.641643 -14.51898,-26.472615 z M 59.354658,45.890428 h 61.880922 c 8.71851,0 16.34938,10.336074 19.18924,24.321656 -1.42037,-0.264092 -2.92847,-0.414381 -4.47827,-0.492566 0,-0.03127 0.0104,-0.05734 0.0104,-0.08253 0,-8.117354 -6.59882,-14.721391 -14.72139,-14.721391 -8.12257,0 -14.72139,6.604037 -14.72139,14.721391 H 46.540984 c -2.265631,0 -4.39053,0.1972 -6.3912,0.569883 2.84507,-13.985582 10.481151,-24.316444 19.204874,-24.316443 z m 72.015452,23.751774 h -20.25255 c 0,-5.592843 4.54603,-10.133662 10.13366,-10.133662 5.57286,-8.69e-4 10.11889,4.53995 10.11889,10.133662 z M 43.109525,108.80861 c -5.297476,0 -9.605477,-4.29758 -9.605477,-9.610693 0,-5.302689 4.307132,-9.610689 9.605477,-9.610689 5.307902,0 9.615902,4.302788 9.615902,9.610689 -8.68e-4,5.324403 -4.302788,9.610693 -9.615902,9.610693 z M 118.19852,107.1033 H 62.386503 c -1.270074,0 -2.296036,-1.03117 -2.296036,-2.29604 0,-1.25964 1.025962,-2.28561 2.296036,-2.28561 h 55.811147 c 1.27008,0 2.29604,1.02597 2.29604,2.28561 8.7e-4,1.26487 -1.02509,2.29604 -2.29517,2.29604 z m 0,-8.412718 H 62.386503 c -1.270074,0 -2.296036,-1.031174 -2.296036,-2.296036 0,-1.264861 1.025962,-2.285611 2.296036,-2.285611 h 55.811147 c 1.27008,0 2.29604,1.025962 2.29604,2.285611 8.7e-4,1.264862 -1.02509,2.296036 -2.29517,2.296036 z m 19.28219,10.118028 c -5.30269,0 -9.61069,-4.29758 -9.61069,-9.610693 0,-5.302689 4.30714,-9.610689 9.61069,-9.610689 5.29748,0 9.61069,4.302788 9.61069,9.610689 -0.005,5.324403 -4.31234,9.610693 -9.61069,9.610693 z"
   id="path4" /> </g>

<text
   xml:space="preserve"
   style="font-style:normal;font-variant:normal;font-weight:normal;font-stretch:normal;font-size:84.5432px;line-height:1.25;font-family:Verdana;-inkscape-font-specification:'Verdana, Normal';font-variant-ligatures:normal;font-variant-caps:normal;font-variant-numeric:normal;font-variant-east-asian:normal;fill:#e30202;fill-opacity:1;stroke:none;stroke-width:2.11359"
   x="109.13796"
   y="64.233696"
   id="text33652"
   transform="scale(0.71875369,1.3912972)"><tspan
     id="tspan33650"
     style="font-style:normal;font-variant:normal;font-weight:normal;font-stretch:normal;font-size:84.5441px;font-family:Verdana;-inkscape-font-specification:'Verdana, Normal';font-variant-ligatures:normal;font-variant-caps:normal;font-variant-numeric:normal;font-variant-east-asian:normal;fill:#e30202;fill-opacity:1;stroke-width:2.11359"
     x="109.13796"
     y="64.233696">}</tspan></text><text
   xml:space="preserve"
   style="font-style:normal;font-variant:normal;font-weight:normal;font-stretch:normal;font-size:84.5432px;line-height:1.25;font-family:Verdana;-inkscape-font-specification:'Verdana, Normal';font-variant-ligatures:normal;font-variant-caps:normal;font-variant-numeric:normal;font-variant-east-asian:normal;fill:#e30202;fill-opacity:1;stroke:none;stroke-width:2.11359"
   x="-46.524021"
   y="64.233696"
   id="text34823"
   transform="scale(-0.71875369,1.3912972)"><tspan
     id="tspan34821"
     style="font-style:normal;font-variant:normal;font-weight:normal;font-stretch:normal;font-size:84.5441px;font-family:Verdana;-inkscape-font-specification:'Verdana, Normal';font-variant-ligatures:normal;font-variant-caps:normal;font-variant-numeric:normal;font-variant-east-asian:normal;fill:#e30202;fill-opacity:1;stroke-width:2.11359"
     x="-46.524021"
     y="64.233696">}</tspan></text></svg>
